<svg width="42" height="42" viewBox="0 0 42 42" fill="none" xmlns="http://www.w3.org/2000/svg">
<g id="&#240;&#159;&#166;&#134; icon &#34;cloud upload&#34;">
<path id="Vector" d="M28.637 23.3058L20.8156 15.4844L12.9941 23.3058L14.9563 25.268L19.4281 20.7963V41.6257H22.2031V20.7963L26.6748 25.268L28.637 23.3058Z" fill="#1D312C" fill-opacity="0.54"/>
<path id="Vector_2" d="M33.3004 12.6136V12.4876C33.3004 5.60209 27.6983 0 20.8127 0C13.9272 0 8.32509 5.60209 8.32509 12.4876V12.7037C6.26994 13.0915 4.37535 14.0784 2.87962 15.5402C1.96938 16.4236 1.24555 17.4806 0.750941 18.6487C0.25633 19.8168 0.000982704 21.0722 0 22.3406C0 25.0393 1.10897 27.6099 3.12278 29.5791C5.09045 31.5031 7.74737 32.6066 10.4124 32.6066H15.9564V29.8316H10.4124C6.3439 29.8316 2.77503 26.3311 2.77503 22.3406C2.77503 18.6752 5.86572 15.5838 9.81121 15.3029L11.1001 15.2111V12.4876C11.1001 9.9117 12.1234 7.44126 13.9449 5.61979C15.7664 3.79832 18.2368 2.77503 20.8127 2.77503C23.3887 2.77503 25.8591 3.79832 27.6806 5.61979C29.5021 7.44126 30.5253 9.9117 30.5253 12.4876V15.2661L31.8955 15.2835C35.9256 15.3345 38.8504 18.3025 38.8504 22.3406C38.8504 26.5412 35.7585 29.8316 31.8114 29.8316H25.669V32.6066H31.8114C33.1335 32.611 34.442 32.3398 35.6535 31.8105C36.8649 31.2811 37.9529 30.5052 38.8478 29.5321C40.639 27.6063 41.6255 25.0524 41.6255 22.3406C41.6255 17.273 38.1321 13.3021 33.3004 12.6136Z" fill="#1D312C" fill-opacity="0.54"/>
</g>
</svg>
